<svg width="47" height="48" viewBox="0 0 47 48" fill="none" xmlns="http://www.w3.org/2000/svg">
<path d="M38.2179 42L26.2456 29.4C25.2955 30.2 24.2027 30.8333 22.9675 31.3C21.7323 31.7667 20.4179 32 19.0242 32C15.5719 32 12.6504 30.742 10.2598 28.226C7.86784 25.7087 6.67188 22.6333 6.67188 19C6.67188 15.3667 7.86784 12.2913 10.2598 9.774C12.6504 7.258 15.5719 6 19.0242 6C22.4766 6 25.3987 7.258 27.7906 9.774C30.1813 12.2913 31.3766 15.3667 31.3766 19C31.3766 20.4667 31.1549 21.85 30.7115 23.15C30.2681 24.45 29.6663 25.6 28.9061 26.6L40.8784 39.2L38.2179 42ZM19.0242 28C21.3997 28 23.4192 27.1253 25.0826 25.376C26.7448 23.6253 27.5759 21.5 27.5759 19C27.5759 16.5 26.7448 14.3747 25.0826 12.624C23.4192 10.8747 21.3997 10 19.0242 10C16.6488 10 14.6293 10.8747 12.9659 12.624C11.3037 14.3747 10.4726 16.5 10.4726 19C10.4726 21.5 11.3037 23.6253 12.9659 25.376C14.6293 27.1253 16.6488 28 19.0242 28Z" fill="white"/>
</svg>
